<svg width="166" height="53" viewBox="0 0 166 53" fill="none" xmlns="http://www.w3.org/2000/svg">
<path d="M66.7449 32.5184V17.7184H69.6249V32.5184H66.7449ZM80.784 32.7084C78.0773 32.7084 76.0073 32.0917 74.574 30.8584C73.1407 29.6184 72.424 27.715 72.424 25.1484C72.424 23.5017 72.754 22.1117 73.414 20.9784C74.074 19.8384 75.0373 18.9784 76.304 18.3984C77.5707 17.8184 79.1107 17.5284 80.924 17.5284C82.184 17.5284 83.404 17.6684 84.584 17.9484V20.2884C83.4773 20.0217 82.324 19.8884 81.124 19.8884C79.2107 19.8884 77.784 20.3117 76.844 21.1584C75.9107 22.005 75.444 23.3217 75.444 25.1084C75.444 26.935 75.904 28.265 76.824 29.0984C77.744 29.9317 79.1207 30.3484 80.954 30.3484C82.1873 30.3484 83.3973 30.1817 84.584 29.8484V32.1884C83.4107 32.535 82.144 32.7084 80.784 32.7084ZM89.7707 30.3284H98.2607V32.5184H86.9207V17.7184H98.1607V19.9084H89.7707V23.8484H97.1207V26.0384H89.7707V30.3284ZM109.975 24.8884C110.921 25.0617 111.645 25.445 112.145 26.0384C112.651 26.6317 112.905 27.405 112.905 28.3584C112.905 29.2984 112.661 30.085 112.175 30.7184C111.695 31.3517 110.898 31.835 109.785 32.1684C108.678 32.5017 107.201 32.6684 105.355 32.6684C104.668 32.6684 103.935 32.6417 103.155 32.5884C102.381 32.5417 101.638 32.4717 100.925 32.3784V18.0984C101.685 17.925 102.501 17.7917 103.375 17.6984C104.248 17.5984 105.118 17.5484 105.985 17.5484C108.251 17.5484 109.901 17.8917 110.935 18.5784C111.975 19.265 112.495 20.2884 112.495 21.6484C112.495 22.4617 112.275 23.155 111.835 23.7284C111.401 24.295 110.781 24.6817 109.975 24.8884ZM106.285 19.5784C105.371 19.5784 104.525 19.655 103.745 19.8084V23.9084H106.655C107.741 23.9084 108.535 23.735 109.035 23.3884C109.541 23.0417 109.795 22.4984 109.795 21.7584C109.795 21.245 109.678 20.8284 109.445 20.5084C109.218 20.1884 108.848 19.955 108.335 19.8084C107.821 19.655 107.138 19.5784 106.285 19.5784ZM106.075 30.6384C107.141 30.6384 107.981 30.5517 108.595 30.3784C109.208 30.1984 109.638 29.9384 109.885 29.5984C110.138 29.2517 110.265 28.805 110.265 28.2584C110.265 27.4584 110.001 26.8784 109.475 26.5184C108.955 26.1517 108.108 25.9684 106.935 25.9684H103.745V30.5084C104.418 30.595 105.195 30.6384 106.075 30.6384ZM118.169 30.3284H126.659V32.5184H115.319V17.7184H126.559V19.9084H118.169V23.8484H125.519V26.0384H118.169V30.3284ZM138.993 32.5184L134.583 26.8684H134.233C133.613 26.8684 132.92 26.8417 132.153 26.7884V32.5184H129.323V18.0984C130.043 17.9317 130.836 17.7984 131.703 17.6984C132.57 17.5984 133.42 17.5484 134.253 17.5484C136.506 17.5484 138.183 17.9217 139.283 18.6684C140.39 19.4084 140.943 20.5784 140.943 22.1784C140.943 23.2784 140.646 24.1917 140.053 24.9184C139.46 25.6384 138.593 26.1584 137.453 26.4784L142.213 32.5184H138.993ZM132.153 24.6784C132.913 24.7584 133.646 24.7984 134.353 24.7984C135.706 24.7984 136.693 24.5917 137.313 24.1784C137.94 23.7584 138.253 23.0984 138.253 22.1984C138.253 21.5717 138.12 21.0684 137.853 20.6884C137.593 20.3084 137.186 20.0317 136.633 19.8584C136.086 19.685 135.37 19.5984 134.483 19.5984C133.71 19.5984 132.933 19.6717 132.153 19.8184V24.6784ZM156.112 25.3184V32.3184C155.365 32.4384 154.665 32.525 154.012 32.5784C153.358 32.6384 152.688 32.6684 152.002 32.6684C148.982 32.6684 146.715 32.0417 145.202 30.7884C143.695 29.5284 142.938 27.655 142.932 25.1684C142.932 23.515 143.282 22.1184 143.982 20.9784C144.682 19.8384 145.698 18.9784 147.032 18.3984C148.372 17.8184 149.992 17.5284 151.892 17.5284C153.112 17.5284 154.352 17.6684 155.612 17.9484V20.2884C154.465 20.0217 153.295 19.8884 152.102 19.8884C150.055 19.895 148.515 20.3284 147.482 21.1884C146.448 22.0417 145.932 23.3684 145.932 25.1684C145.932 28.615 147.905 30.3384 151.852 30.3384C152.392 30.3384 152.912 30.3184 153.412 30.2784V25.3184H156.112Z" fill="white"/>
<circle opacity="0.24" cx="26.4468" cy="26.4468" r="26.4468" fill="url(#paint0_linear_137_124)"/>
<path d="M10.5239 26.4468L13.2948 18.0023C13.4295 17.5917 13.8128 17.3141 14.2449 17.3141H17.523C17.8731 17.3141 18.1976 17.1311 18.3787 16.8315L20.8685 12.7138C21.2739 12.0434 22.2577 12.0783 22.6145 12.7757L24.1342 15.746C24.4878 16.4371 25.4596 16.4793 25.8718 15.8215L30.7774 7.99344C31.1738 7.36096 32.0983 7.36992 32.4823 8.00996L37.3454 16.1151C37.5261 16.4163 37.8516 16.6006 38.2029 16.6006H39.279C39.7392 16.6006 40.1399 16.9146 40.25 17.3614L42.4884 26.4468" stroke="white" stroke-width="2.8" stroke-linecap="round"/>
<path d="M10.5239 26.4468L13.2948 34.8913C13.4295 35.3019 13.8128 35.5795 14.2449 35.5795L17.523 35.5795C17.8731 35.5795 18.1976 35.7626 18.3787 36.0621L20.8685 40.1798C21.2739 40.8502 22.2577 40.8153 22.6145 40.1179L24.1342 37.1476C24.4878 36.4565 25.4596 36.4143 25.8718 37.0721L30.7774 44.9002C31.1738 45.5327 32.0983 45.5237 32.4823 44.8837L37.3454 36.7785C37.5261 36.4773 37.8516 36.293 38.2029 36.293L39.279 36.293C39.7392 36.293 40.1399 35.979 40.25 35.5322L42.4884 26.4468" stroke="white" stroke-width="2.8" stroke-linecap="round"/>
<path d="M4.95874 26.4468H48.0537" stroke="white" stroke-width="2.8" stroke-linecap="round"/>
<defs>
<linearGradient id="paint0_linear_137_124" x1="52.8937" y1="26.4468" x2="0" y2="26.4468" gradientUnits="userSpaceOnUse">
<stop stop-color="#D9D9D9"/>
<stop offset="1" stop-color="#737373"/>
</linearGradient>
</defs>
</svg>
